<?xml version="1.0" encoding="UTF-8"?><svg id="Layer_2" xmlns="http://www.w3.org/2000/svg" xmlns:xlink="http://www.w3.org/1999/xlink" viewBox="0 0 125 125"><defs><linearGradient id="linear-gradient" x1="-19.56" y1="78.83" x2="152.94" y2="26.43" gradientUnits="userSpaceOnUse"><stop offset="0" stop-color="#f93"/><stop offset=".13" stop-color="#fd9434"/><stop offset=".28" stop-color="#f98639"/><stop offset=".44" stop-color="#f17040"/><stop offset=".6" stop-color="#e7514b"/><stop offset=".77" stop-color="#db2958"/><stop offset=".83" stop-color="#d61a5e"/></linearGradient></defs><g id="Layer_1-2"><path d="M52.77,61.19c6.11,15.48-13.14,23.8-12.68,38.45,.46,14.65,16.81,12.65,16.81,12.65-11.48-5.43-8.29-19.25,5.19-19.14h0s.64,0,.62,0h0c13.53-.1,16.62,13.75,5.19,19.14,0,0,16.35,2,16.81-12.65,.46-14.65-18.8-22.97-12.68-38.45,20.76-33.4,84.53,25.96,7.79,54.68-8.07,12.16-26.73,12.19-34.83,0-76.79-28.78-12.89-88.06,7.79-54.68h0ZM30.9,28.07C23.56,11.43,10.88,9.1,10.88,9.1c14.36-1.33,24.15,4.33,24.15,4.33C25.4-3.05,1.86,.28,1.86,.28c-5.81,31.46,3.82,50.1,3.82,50.1L30.9,28.07h0Zm63.21,0l25.22,22.3s9.63-18.64,3.82-50.1c0,0-23.53-3.33-33.16,13.15,0,0,9.78-5.66,24.14-4.33,0,0-12.68,2.33-20.02,18.97Z" style="fill:url(#linear-gradient); fill-rule:evenodd;"/></g></svg>